<svg width="270" height="28" viewBox="0 0 270 28" fill="none" xmlns="http://www.w3.org/2000/svg">
<path d="M167.937 12.6274V0.134508H177.142V2.11537H170.17V5.53686H176.014V7.38266H170.17V12.6274H167.937ZM176.979 12.6274L182.552 0.134508H184.38L189.908 12.6274H187.539L186.095 9.38604H180.815L179.394 12.6274H176.979ZM183.455 2.8807L181.311 7.45019H185.553L183.455 2.8807ZM191.799 12.6274V0.134508H194.033V10.6466H200.847V12.6274H191.799ZM201.672 6.27968C201.672 5.52937 201.815 4.78654 202.101 4.05121C202.402 3.31588 202.83 2.6481 203.387 2.04784C203.959 1.44758 204.651 0.967371 205.463 0.607214C206.29 0.247057 207.223 0.0669785 208.261 0.0669785C209.494 0.0669785 210.554 0.322089 211.442 0.832312C212.344 1.34253 213.014 1.99532 213.45 2.79067L211.69 3.98368C211.329 3.26337 210.81 2.76816 210.133 2.49804C209.471 2.21291 208.825 2.07035 208.193 2.07035C207.501 2.07035 206.884 2.19791 206.343 2.45302C205.816 2.70813 205.373 3.03827 205.012 3.44345C204.665 3.84863 204.402 4.30632 204.222 4.81655C204.041 5.32678 203.951 5.8445 203.951 6.36972C203.951 6.93996 204.056 7.48772 204.267 8.01294C204.478 8.53816 204.771 9.01086 205.147 9.43106C205.538 9.83623 205.989 10.1589 206.501 10.399C207.027 10.6241 207.606 10.7366 208.238 10.7366C208.674 10.7366 209.125 10.6691 209.592 10.534C210.058 10.384 210.487 10.1664 210.878 9.88125C211.269 9.59612 211.577 9.22097 211.803 8.75576L213.676 9.83623C213.39 10.4515 212.946 10.9767 212.344 11.4119C211.743 11.8471 211.073 12.1773 210.336 12.4024C209.599 12.6274 208.87 12.74 208.148 12.74C207.2 12.74 206.328 12.5599 205.531 12.1998C204.748 11.8246 204.064 11.3294 203.477 10.7141C202.906 10.0838 202.462 9.38604 202.146 8.6207C201.83 7.85537 201.672 7.07502 201.672 6.27968ZM221.435 12.7175C220.473 12.7175 219.593 12.5449 218.795 12.1998C217.998 11.8396 217.306 11.3594 216.72 10.7591C216.133 10.1589 215.682 9.48357 215.366 8.73325C215.065 7.96792 214.915 7.18008 214.915 6.36972C214.915 5.54436 215.08 4.75651 215.411 4.00619C215.742 3.24086 216.201 2.56557 216.787 1.98031C217.374 1.39506 218.066 0.929854 218.863 0.584704C219.675 0.239553 220.548 0.0669785 221.48 0.0669785C222.458 0.0669785 223.345 0.25456 224.143 0.629724C224.94 0.989881 225.624 1.47009 226.196 2.07035C226.767 2.67061 227.204 3.35341 227.505 4.11874C227.82 4.86906 227.978 5.63439 227.978 6.41474C227.978 7.24011 227.813 8.03545 227.482 8.80078C227.166 9.5511 226.715 10.2264 226.128 10.8267C225.542 11.4119 224.85 11.8771 224.053 12.2223C223.27 12.5524 222.398 12.7175 221.435 12.7175ZM217.194 6.39223C217.194 6.94748 217.291 7.48772 217.487 8.01294C217.682 8.52317 217.968 8.98835 218.344 9.40855C218.72 9.81372 219.171 10.1364 219.698 10.3765C220.239 10.6016 220.834 10.7141 221.48 10.7141C222.142 10.7141 222.729 10.5941 223.24 10.354C223.767 10.0989 224.21 9.76121 224.571 9.34102C224.932 8.92083 225.211 8.45564 225.406 7.94541C225.602 7.43518 225.7 6.90996 225.7 6.36972C225.7 5.81447 225.594 5.28176 225.384 4.77153C225.188 4.24631 224.902 3.78859 224.526 3.39843C224.165 2.99325 223.722 2.67061 223.195 2.43051C222.669 2.1904 222.09 2.07035 221.458 2.07035C220.781 2.07035 220.179 2.19791 219.653 2.45302C219.126 2.69312 218.683 3.02326 218.322 3.44345C217.961 3.84863 217.682 4.30632 217.487 4.81655C217.291 5.32678 217.194 5.852 217.194 6.39223Z" fill="black"/>
<path d="M167.937 27.7255V15.2325H173.961C174.803 15.2325 175.54 15.4426 176.172 15.8628C176.819 16.268 177.323 16.7857 177.684 17.416C178.06 18.0313 178.248 18.6765 178.248 19.3518C178.248 19.8921 178.135 20.4098 177.909 20.905C177.699 21.3852 177.39 21.8129 176.984 22.1881C176.593 22.5482 176.127 22.8258 175.585 23.0209L178.879 27.7255H176.307L173.306 23.4711H170.17V27.7255H167.937ZM170.17 21.5128H173.916C174.322 21.5128 174.675 21.4153 174.976 21.2202C175.292 21.0251 175.533 20.7625 175.698 20.4323C175.879 20.1022 175.969 19.742 175.969 19.3518C175.969 18.9317 175.871 18.564 175.676 18.2489C175.48 17.9337 175.217 17.6861 174.886 17.506C174.57 17.3109 174.209 17.2134 173.803 17.2134H170.17V21.5128ZM190.612 25.7446V27.7255H181.113V15.2325H190.431V17.2134H183.347V20.4548H189.484V22.2781H183.347V25.7446H190.612ZM201.108 18.3839C200.913 18.2038 200.627 18.0163 200.251 17.8212C199.89 17.6261 199.469 17.461 198.987 17.326C198.506 17.1909 198.002 17.1234 197.476 17.1234C196.603 17.1234 195.957 17.2584 195.535 17.5285C195.129 17.7987 194.926 18.1813 194.926 18.6765C194.926 19.0367 195.047 19.3218 195.287 19.5319C195.528 19.742 195.889 19.9221 196.37 20.0722C196.866 20.2072 197.483 20.3648 198.22 20.5449C199.123 20.7549 199.905 21.0026 200.567 21.2877C201.229 21.5578 201.74 21.9255 202.101 22.3907C202.462 22.8409 202.643 23.4411 202.643 24.1915C202.643 24.8517 202.515 25.4145 202.259 25.8797C202.003 26.3449 201.642 26.7276 201.176 27.0277C200.725 27.3128 200.198 27.5229 199.597 27.658C198.995 27.793 198.356 27.8605 197.679 27.8605C196.656 27.8605 195.656 27.7181 194.678 27.4329C193.715 27.1477 192.85 26.7426 192.083 26.2173L193.099 24.2815C193.354 24.5216 193.708 24.7617 194.159 25.0018C194.625 25.2419 195.167 25.4445 195.783 25.6096C196.4 25.7746 197.047 25.8572 197.724 25.8572C198.521 25.8572 199.138 25.7371 199.574 25.497C200.01 25.2419 200.228 24.8818 200.228 24.4165C200.228 24.0264 200.078 23.7187 199.777 23.4936C199.491 23.2685 199.078 23.0735 198.536 22.9084C197.995 22.7433 197.34 22.5707 196.573 22.3907C195.686 22.1656 194.949 21.918 194.362 21.6478C193.791 21.3627 193.354 21.0101 193.053 20.5899C192.753 20.1547 192.602 19.6069 192.602 18.9467C192.602 18.1213 192.82 17.431 193.256 16.8758C193.693 16.3055 194.279 15.8778 195.016 15.5927C195.769 15.2926 196.603 15.1425 197.521 15.1425C198.438 15.1425 199.288 15.2776 200.07 15.5477C200.853 15.8178 201.53 16.1555 202.101 16.5606L201.108 18.3839ZM214.54 25.7446V27.7255H205.042V15.2325H214.36V17.2134H207.275V20.4548H213.412V22.2781H207.275V25.7446H214.54ZM215.561 27.7255L221.134 15.2325H222.961L228.489 27.7255H226.12L224.676 24.4841H219.396L217.975 27.7255H215.561ZM222.036 17.9787L219.893 22.5482H224.135L222.036 17.9787ZM230.38 27.7255V15.2325H236.404C237.247 15.2325 237.984 15.4426 238.616 15.8628C239.262 16.268 239.766 16.7857 240.127 17.416C240.503 18.0313 240.691 18.6765 240.691 19.3518C240.691 19.8921 240.579 20.4098 240.353 20.905C240.142 21.3852 239.834 21.8129 239.428 22.1881C239.037 22.5482 238.57 22.8258 238.029 23.0209L241.323 27.7255H238.751L235.75 23.4711H232.614V27.7255H230.38ZM232.614 21.5128H236.359C236.765 21.5128 237.119 21.4153 237.42 21.2202C237.736 21.0251 237.976 20.7625 238.142 20.4323C238.322 20.1022 238.413 19.742 238.413 19.3518C238.413 18.9317 238.315 18.564 238.119 18.2489C237.924 17.9337 237.661 17.6861 237.33 17.506C237.014 17.3109 236.653 17.2134 236.247 17.2134H232.614V21.5128ZM242.655 21.3777C242.655 20.6274 242.798 19.8846 243.084 19.1493C243.385 18.4139 243.813 17.7462 244.37 17.1459C244.941 16.5456 245.633 16.0654 246.446 15.7053C247.273 15.3451 248.206 15.165 249.243 15.165C250.477 15.165 251.537 15.4201 252.425 15.9304C253.327 16.4406 253.997 17.0934 254.433 17.8887L252.673 19.0817C252.312 18.3614 251.793 17.8662 251.116 17.5961C250.454 17.3109 249.807 17.1684 249.176 17.1684C248.484 17.1684 247.867 17.296 247.326 17.5511C246.799 17.8062 246.355 18.1363 245.994 18.5415C245.649 18.9467 245.385 19.4044 245.205 19.9146C245.024 20.4248 244.934 20.9425 244.934 21.4678C244.934 22.038 245.039 22.5858 245.25 23.111C245.46 23.6362 245.754 24.1089 246.13 24.5291C246.521 24.9343 246.972 25.2569 247.484 25.497C248.01 25.7221 248.589 25.8347 249.221 25.8347C249.657 25.8347 250.108 25.7671 250.575 25.6321C251.041 25.482 251.47 25.2644 251.861 24.9793C252.252 24.6942 252.56 24.319 252.786 23.8538L254.658 24.9343C254.373 25.5495 253.929 26.0748 253.327 26.51C252.726 26.9451 252.056 27.2753 251.319 27.5004C250.582 27.7255 249.853 27.838 249.131 27.838C248.183 27.838 247.31 27.658 246.513 27.2978C245.731 26.9226 245.047 26.4274 244.46 25.8122C243.889 25.1819 243.445 24.4841 243.129 23.7187C242.813 22.9534 242.655 22.1731 242.655 21.3777ZM268.281 15.2325V27.7255H266.024V22.3231H259.143V27.7255H256.909V15.2325H259.143V20.3423H266.024V15.2325H268.281Z" fill="#794FBC"/>
<path d="M151.414 3.3216C151.681 2.86305 151.526 2.27486 151.066 2.00781C150.606 1.74075 150.017 1.89597 149.749 2.3545L151.414 3.3216ZM136.268 25.4463C136.001 25.9049 136.156 26.4931 136.616 26.7601C137.076 27.0272 137.665 26.872 137.933 26.4134L136.268 25.4463ZM160.637 13.1953C161.169 13.1953 161.601 12.7651 161.601 12.2345C161.601 11.7039 161.169 11.2737 160.637 11.2737V13.1953ZM141.109 11.2737C140.577 11.2737 140.146 11.7039 140.146 12.2345C140.146 12.7651 140.577 13.1953 141.109 13.1953V11.2737ZM161.601 12.4201C161.601 11.8895 161.169 11.4593 160.637 11.4593C160.106 11.4593 159.674 11.8895 159.674 12.4201H161.601ZM141.421 11.5113C140.918 11.3391 140.37 11.6064 140.198 12.1083C140.025 12.6102 140.293 13.1567 140.796 13.3289L141.421 11.5113ZM158.972 18.3614C158.972 17.8308 158.54 17.4006 158.009 17.4006C157.477 17.4006 157.046 17.8308 157.046 18.3614H158.972ZM151.986 24.0557C151.643 23.6495 151.036 23.5971 150.629 23.9386C150.222 24.2801 150.169 24.8862 150.512 25.2923L151.986 24.0557ZM152.389 27.5204C152.732 27.9264 153.339 27.9789 153.746 27.6374C154.153 27.2958 154.206 26.6898 153.864 26.2836L152.389 27.5204ZM145.632 27.5235C145.976 27.9281 146.584 27.978 146.989 27.6346C147.395 27.2916 147.445 26.6853 147.101 26.2806L145.632 27.5235ZM154.841 5.73621C154.841 5.20558 154.409 4.77543 153.878 4.77543C153.346 4.77543 152.914 5.20558 152.914 5.73621H154.841ZM152.914 7.22153C152.914 7.75216 153.346 8.18231 153.878 8.18231C154.409 8.18231 154.841 7.75216 154.841 7.22153H152.914ZM162.14 9.2963C162.672 9.2963 163.103 8.86612 163.103 8.33552C163.103 7.80489 162.672 7.37473 162.14 7.37473V9.2963ZM159.135 7.37473C158.603 7.37473 158.172 7.80489 158.172 8.33552C158.172 8.86612 158.603 9.2963 159.135 9.2963V7.37473ZM148.593 4.2591C148.324 4.71641 148.476 5.30531 148.935 5.57447C149.393 5.84363 149.983 5.69111 150.253 5.2338L148.593 4.2591ZM157.339 6.65489C157.339 7.18551 157.77 7.61567 158.302 7.61567C158.834 7.61567 159.265 7.18551 159.265 6.65489H157.339ZM149.749 2.3545L136.268 25.4463L137.933 26.4134L151.414 3.3216L149.749 2.3545ZM157.339 5.12814V12.2345H159.265V5.12814H157.339ZM160.637 11.2737H141.109V13.1953H160.637V11.2737ZM159.674 12.4201V18.568H161.601V12.4201H159.674ZM159.674 18.568C159.674 18.1586 160.075 17.8959 160.438 18.0199L159.813 19.8375C160.677 20.1331 161.601 19.5022 161.601 18.568H159.674ZM160.438 18.0199L141.421 11.5113L140.796 13.3289L159.813 19.8375L160.438 18.0199ZM157.046 18.3614C157.046 21.3007 154.624 23.6933 151.63 23.6757L151.619 25.5972C155.664 25.621 158.972 22.3827 158.972 18.3614H157.046ZM151.63 23.6757L144.47 23.6336L144.459 25.5551L151.619 25.5972L151.63 23.6757ZM150.512 25.2923L152.389 27.5204L153.864 26.2836L151.986 24.0557L150.512 25.2923ZM143.709 25.2609L145.632 27.5235L147.101 26.2806L145.178 24.0182L143.709 25.2609ZM152.914 5.73621V7.22153H154.841V5.73621H152.914ZM162.14 7.37473H159.135V9.2963H162.14V7.37473ZM150.253 5.2338L151.164 3.69021L149.504 2.7155L148.593 4.2591L150.253 5.2338ZM151.164 3.69021C151.388 3.30985 151.689 2.97769 152.047 2.71411L150.904 1.16722C150.337 1.58419 149.861 2.11075 149.504 2.7155L151.164 3.69021ZM152.047 2.71411C154.245 1.09824 157.339 2.66173 157.339 5.33274H159.265C159.265 1.05319 154.348 -1.36429 150.904 1.16722L152.047 2.71411ZM157.339 5.33274V6.65489H159.265V5.33274H157.339ZM144.47 23.6336C143.624 23.6286 143.162 24.6168 143.709 25.2609L145.178 24.0182C145.695 24.6265 145.259 25.5598 144.459 25.5551L144.47 23.6336Z" fill="black"/>
<path d="M3.05328 19.14C2.52128 19.14 2.05928 19 1.66728 18.72C1.27528 18.44 0.976615 18.0667 0.771281 17.6C0.565948 17.1333 0.463281 16.6293 0.463281 16.088C0.463281 15.5093 0.570615 14.954 0.785281 14.422C1.00928 13.8807 1.30795 13.4 1.68128 12.98C2.06395 12.5507 2.49795 12.21 2.98328 11.958C3.46861 11.706 3.97728 11.58 4.50928 11.58C5.09728 11.58 5.58261 11.7433 5.96528 12.07C6.34795 12.3873 6.61861 12.7747 6.77728 13.232L7.11328 11.706H8.06528L6.77728 17.754C6.76795 17.782 6.75861 17.8147 6.74928 17.852C6.74928 17.88 6.74928 17.908 6.74928 17.936C6.74928 18.0853 6.83795 18.16 7.01528 18.16L6.83328 19C6.75861 19.0093 6.68862 19.0187 6.62328 19.028C6.56728 19.0373 6.51128 19.042 6.45528 19.042C6.24061 19.0327 6.07728 18.9767 5.96528 18.874C5.86261 18.762 5.81128 18.6313 5.81128 18.482C5.81128 18.426 5.81595 18.3653 5.82528 18.3C5.83461 18.2347 5.84861 18.146 5.86728 18.034C5.89528 17.922 5.92795 17.7727 5.96528 17.586C5.59195 18.062 5.13928 18.44 4.60728 18.72C4.08461 19 3.56661 19.14 3.05328 19.14ZM3.44528 18.3C3.67861 18.3 3.92595 18.2533 4.18728 18.16C4.45795 18.0667 4.71928 17.9407 4.97128 17.782C5.22328 17.614 5.44728 17.418 5.64328 17.194C5.84861 16.97 5.99795 16.7367 6.09128 16.494L6.55328 14.24C6.51595 13.904 6.40395 13.6007 6.21728 13.33C6.03061 13.0593 5.79728 12.84 5.51728 12.672C5.23728 12.504 4.92928 12.42 4.59328 12.42C4.17328 12.42 3.77661 12.5227 3.40328 12.728C3.02995 12.9333 2.69395 13.2087 2.39528 13.554C2.10595 13.8993 1.87728 14.282 1.70928 14.702C1.54128 15.1127 1.45728 15.528 1.45728 15.948C1.45728 16.3773 1.54128 16.7693 1.70928 17.124C1.87728 17.4787 2.10595 17.7633 2.39528 17.978C2.69395 18.1927 3.04395 18.3 3.44528 18.3ZM13.6468 11.706H14.4868L14.1928 13.12C14.5661 12.6627 15.0095 12.294 15.5228 12.014C16.0455 11.7247 16.5681 11.58 17.0908 11.58C17.6321 11.58 18.0941 11.7247 18.4768 12.014C18.8688 12.294 19.1675 12.6673 19.3728 13.134C19.5781 13.6007 19.6808 14.1047 19.6808 14.646C19.6808 15.2153 19.5735 15.7707 19.3588 16.312C19.1441 16.844 18.8501 17.3247 18.4768 17.754C18.1035 18.1833 17.6741 18.524 17.1888 18.776C16.7035 19.0187 16.1855 19.14 15.6348 19.14C15.0561 19.14 14.5755 18.9813 14.1928 18.664C13.8101 18.3467 13.5348 17.9547 13.3668 17.488L12.4148 21.982H11.4628L13.6468 11.706ZM15.5508 18.3C15.9708 18.3 16.3675 18.1973 16.7408 17.992C17.1235 17.7867 17.4595 17.516 17.7488 17.18C18.0381 16.844 18.2668 16.466 18.4348 16.046C18.6028 15.626 18.6868 15.2107 18.6868 14.8C18.6868 14.3613 18.6028 13.9647 18.4348 13.61C18.2761 13.246 18.0475 12.9567 17.7488 12.742C17.4501 12.5273 17.0955 12.42 16.6848 12.42C16.4608 12.42 16.2135 12.4667 15.9428 12.56C15.6815 12.6533 15.4201 12.7887 15.1588 12.966C14.9068 13.134 14.6828 13.3253 14.4868 13.54C14.2908 13.7547 14.1461 13.9833 14.0528 14.226L13.5768 16.466C13.6421 16.8113 13.7635 17.124 13.9408 17.404C14.1275 17.6747 14.3561 17.894 14.6268 18.062C14.9068 18.2207 15.2148 18.3 15.5508 18.3ZM21.9316 11.706H22.8276L22.4496 13.456C22.8136 12.9333 23.229 12.5133 23.6956 12.196C24.1623 11.8787 24.629 11.7107 25.0956 11.692C25.1703 11.692 25.2356 11.6967 25.2916 11.706C25.3476 11.706 25.3943 11.7107 25.4316 11.72L25.2496 12.546C24.6523 12.5647 24.0876 12.742 23.5556 13.078C23.0236 13.414 22.6036 13.876 22.2956 14.464L21.3436 19H20.3916L21.9316 11.706ZM28.0234 19.14C27.3887 19.14 26.8614 19.0047 26.4414 18.734C26.0214 18.454 25.7087 18.0807 25.5034 17.614C25.298 17.1473 25.1954 16.634 25.1954 16.074C25.1954 15.458 25.3074 14.8793 25.5314 14.338C25.7647 13.7967 26.0774 13.3207 26.4694 12.91C26.8614 12.49 27.314 12.1633 27.8274 11.93C28.35 11.6967 28.896 11.58 29.4654 11.58C30.0907 11.58 30.6134 11.72 31.0334 12C31.4627 12.28 31.78 12.6533 31.9854 13.12C32.1907 13.5773 32.2934 14.0907 32.2934 14.66C32.2934 15.276 32.1814 15.8547 31.9574 16.396C31.7334 16.9373 31.4207 17.4133 31.0194 17.824C30.6274 18.2347 30.1747 18.5567 29.6614 18.79C29.148 19.0233 28.602 19.14 28.0234 19.14ZM28.1914 18.3C28.5834 18.3 28.966 18.216 29.3394 18.048C29.7127 17.8707 30.044 17.6233 30.3334 17.306C30.632 16.9887 30.87 16.62 31.0474 16.2C31.2247 15.7707 31.3134 15.304 31.3134 14.8C31.3134 14.352 31.234 13.9507 31.0754 13.596C30.926 13.232 30.702 12.9473 30.4034 12.742C30.114 12.5273 29.7454 12.42 29.2974 12.42C28.9054 12.42 28.5227 12.5087 28.1494 12.686C27.776 12.8633 27.44 13.1153 27.1414 13.442C26.852 13.7593 26.6187 14.1327 26.4414 14.562C26.264 14.982 26.1754 15.444 26.1754 15.948C26.1754 16.396 26.25 16.802 26.3994 17.166C26.558 17.5207 26.7867 17.8007 27.0854 18.006C27.384 18.202 27.7527 18.3 28.1914 18.3ZM35.1108 19.14C33.9721 19.14 33.4028 18.5147 33.4028 17.264C33.4028 17.0773 33.4168 16.8813 33.4448 16.676C33.4728 16.4613 33.5101 16.2327 33.5568 15.99L34.4808 11.706H35.4188L34.5508 15.822C34.4574 16.242 34.4108 16.606 34.4108 16.914C34.4108 17.838 34.8121 18.3 35.6148 18.3C35.9694 18.3 36.3241 18.2207 36.6788 18.062C37.0334 17.894 37.3694 17.6607 37.6868 17.362C38.0134 17.054 38.2841 16.6993 38.4988 16.298L39.4788 11.706H40.4308L39.1568 17.656C39.1474 17.712 39.1381 17.7633 39.1288 17.81C39.1194 17.8567 39.1148 17.894 39.1148 17.922C39.1148 18.0807 39.2034 18.16 39.3808 18.16L39.1988 19C39.1241 19.0093 39.0541 19.0187 38.9888 19.028C38.9234 19.0373 38.8628 19.0373 38.8068 19.028C38.6108 19.0187 38.4614 18.9673 38.3588 18.874C38.2561 18.7713 38.2048 18.6407 38.2048 18.482C38.2048 18.4353 38.2094 18.3793 38.2188 18.314C38.2281 18.2393 38.2468 18.1273 38.2748 17.978C38.3028 17.8287 38.3448 17.6187 38.4008 17.348C37.9714 17.908 37.4628 18.3467 36.8748 18.664C36.2961 18.9813 35.7081 19.14 35.1108 19.14ZM43.8095 19.14C43.2681 19.14 42.8015 19 42.4095 18.72C42.0175 18.44 41.7188 18.0667 41.5135 17.6C41.3081 17.1333 41.2055 16.6293 41.2055 16.088C41.2055 15.5093 41.3128 14.954 41.5275 14.422C41.7515 13.8807 42.0501 13.4 42.4235 12.98C42.8061 12.5507 43.2401 12.21 43.7255 11.958C44.2201 11.706 44.7335 11.58 45.2655 11.58C45.8441 11.58 46.3248 11.7433 46.7075 12.07C47.0901 12.3873 47.3608 12.7747 47.5195 13.232L48.4715 8.78H49.4235L47.5195 17.754C47.5101 17.7913 47.5008 17.824 47.4915 17.852C47.4915 17.88 47.4915 17.9033 47.4915 17.922C47.4915 18.0807 47.5801 18.16 47.7575 18.16L47.5755 19C47.5008 19.0093 47.4308 19.0187 47.3655 19.028C47.3001 19.0373 47.2395 19.0373 47.1835 19.028C46.9781 19.0187 46.8195 18.9627 46.7075 18.86C46.6048 18.7573 46.5535 18.6267 46.5535 18.468C46.5535 18.4213 46.5581 18.37 46.5675 18.314C46.5768 18.2487 46.5908 18.16 46.6095 18.048C46.6375 17.9267 46.6701 17.7727 46.7075 17.586C46.3341 18.062 45.8815 18.44 45.3495 18.72C44.8268 19 44.3135 19.14 43.8095 19.14ZM44.2015 18.3C44.4255 18.3 44.6681 18.2533 44.9295 18.16C45.2001 18.0667 45.4615 17.9407 45.7135 17.782C45.9655 17.614 46.1895 17.418 46.3855 17.194C46.5908 16.97 46.7401 16.7367 46.8335 16.494L47.2955 14.24C47.2581 13.904 47.1415 13.6007 46.9455 13.33C46.7495 13.05 46.5115 12.8307 46.2315 12.672C45.9515 12.504 45.6528 12.42 45.3355 12.42C44.9155 12.42 44.5141 12.5227 44.1315 12.728C43.7581 12.9333 43.4268 13.2087 43.1375 13.554C42.8481 13.89 42.6195 14.268 42.4515 14.688C42.2835 15.0987 42.1995 15.514 42.1995 15.934C42.1995 16.3727 42.2788 16.7693 42.4375 17.124C42.6055 17.4787 42.8388 17.7633 43.1375 17.978C43.4455 18.1927 43.8001 18.3 44.2015 18.3ZM54.375 11.706H55.257L54.893 13.358C55.285 12.8073 55.747 12.3733 56.279 12.056C56.811 11.7387 57.3477 11.58 57.889 11.58C58.253 11.58 58.561 11.6547 58.813 11.804C59.065 11.9533 59.2517 12.168 59.373 12.448C59.5037 12.728 59.5643 13.0733 59.555 13.484C59.835 13.064 60.1383 12.714 60.465 12.434C60.7917 12.154 61.1417 11.944 61.515 11.804C61.8883 11.6547 62.257 11.58 62.621 11.58C63.013 11.58 63.3257 11.6547 63.559 11.804C63.7923 11.944 63.965 12.1493 64.077 12.42C64.189 12.6907 64.245 13.008 64.245 13.372C64.245 13.5773 64.231 13.792 64.203 14.016C64.175 14.24 64.133 14.478 64.077 14.73L63.167 19H62.215L63.069 14.926C63.1623 14.4873 63.209 14.1093 63.209 13.792C63.209 13.3347 63.1157 12.9987 62.929 12.784C62.7423 12.56 62.467 12.448 62.103 12.448C61.7577 12.448 61.417 12.5367 61.081 12.714C60.745 12.8913 60.4323 13.1387 60.143 13.456C59.8537 13.764 59.611 14.128 59.415 14.548L58.477 19H57.525L58.379 14.926C58.435 14.6927 58.4723 14.4827 58.491 14.296C58.519 14.1093 58.533 13.932 58.533 13.764C58.533 13.316 58.4397 12.9847 58.253 12.77C58.0663 12.5553 57.791 12.448 57.427 12.448C56.9137 12.448 56.4097 12.6393 55.915 13.022C55.4297 13.4047 55.033 13.9087 54.725 14.534L53.787 19H52.835L54.375 11.706ZM68.206 19.14C67.6087 19.14 67.1 19.0047 66.68 18.734C66.26 18.454 65.938 18.0807 65.714 17.614C65.49 17.1473 65.3733 16.6247 65.364 16.046C65.364 15.4673 65.4667 14.912 65.672 14.38C65.8867 13.848 66.1853 13.372 66.568 12.952C66.96 12.532 67.4173 12.2007 67.94 11.958C68.4627 11.706 69.032 11.58 69.648 11.58C70.1053 11.58 70.516 11.6547 70.88 11.804C71.244 11.9533 71.5287 12.1727 71.734 12.462C71.9487 12.7513 72.056 13.1153 72.056 13.554C72.0653 14.2913 71.748 14.8373 71.104 15.192C70.4693 15.5373 69.494 15.71 68.178 15.71C67.8887 15.71 67.5667 15.7053 67.212 15.696C66.8667 15.6773 66.47 15.6493 66.022 15.612L66.162 14.94C66.61 14.968 66.9927 14.9913 67.31 15.01C67.6367 15.0193 67.94 15.024 68.22 15.024C68.9667 15.024 69.5547 14.968 69.984 14.856C70.4133 14.7347 70.7213 14.562 70.908 14.338C71.104 14.114 71.1973 13.8527 71.188 13.554C71.188 13.2647 71.1133 13.0313 70.964 12.854C70.8147 12.6673 70.6187 12.532 70.376 12.448C70.1427 12.364 69.8767 12.322 69.578 12.322C69.0927 12.322 68.6493 12.4293 68.248 12.644C67.856 12.8493 67.5153 13.1293 67.226 13.484C66.9367 13.8293 66.7127 14.2213 66.554 14.66C66.4047 15.0987 66.33 15.5467 66.33 16.004C66.3393 16.4427 66.4187 16.844 66.568 17.208C66.7173 17.572 66.9413 17.866 67.24 18.09C67.548 18.3047 67.926 18.412 68.374 18.412C68.8593 18.412 69.312 18.2907 69.732 18.048C70.1613 17.8053 70.4973 17.474 70.74 17.054L71.524 17.292C71.3093 17.656 71.0293 17.978 70.684 18.258C70.3387 18.5287 69.956 18.7433 69.536 18.902C69.116 19.0607 68.6727 19.14 68.206 19.14ZM74.1582 11.706H75.0402L74.6762 13.358C75.0682 12.8073 75.5302 12.3733 76.0622 12.056C76.5942 11.7387 77.1309 11.58 77.6722 11.58C78.0362 11.58 78.3442 11.6547 78.5962 11.804C78.8482 11.9533 79.0349 12.168 79.1562 12.448C79.2869 12.728 79.3475 13.0733 79.3382 13.484C79.6182 13.064 79.9215 12.714 80.2482 12.434C80.5749 12.154 80.9249 11.944 81.2982 11.804C81.6715 11.6547 82.0402 11.58 82.4042 11.58C82.7962 11.58 83.1089 11.6547 83.3422 11.804C83.5755 11.944 83.7482 12.1493 83.8602 12.42C83.9722 12.6907 84.0282 13.008 84.0282 13.372C84.0282 13.5773 84.0142 13.792 83.9862 14.016C83.9582 14.24 83.9162 14.478 83.8602 14.73L82.9502 19H81.9982L82.8522 14.926C82.9455 14.4873 82.9922 14.1093 82.9922 13.792C82.9922 13.3347 82.8989 12.9987 82.7122 12.784C82.5255 12.56 82.2502 12.448 81.8862 12.448C81.5409 12.448 81.2002 12.5367 80.8642 12.714C80.5282 12.8913 80.2155 13.1387 79.9262 13.456C79.6369 13.764 79.3942 14.128 79.1982 14.548L78.2602 19H77.3082L78.1622 14.926C78.2182 14.6927 78.2555 14.4827 78.2742 14.296C78.3022 14.1093 78.3162 13.932 78.3162 13.764C78.3162 13.316 78.2229 12.9847 78.0362 12.77C77.8495 12.5553 77.5742 12.448 77.2102 12.448C76.6969 12.448 76.1929 12.6393 75.6982 13.022C75.2129 13.4047 74.8162 13.9087 74.5082 14.534L73.5702 19H72.6182L74.1582 11.706ZM88.3392 19.14C87.7512 19.14 87.2612 18.9907 86.8692 18.692C86.4865 18.3933 86.2159 18.0247 86.0572 17.586L85.7492 19H84.9092L87.0792 8.78H88.0312L87.0792 13.232C87.4899 12.7373 87.9425 12.3407 88.4372 12.042C88.9412 11.734 89.4732 11.58 90.0332 11.58C90.5839 11.58 91.0412 11.7247 91.4052 12.014C91.7692 12.294 92.0399 12.6627 92.2172 13.12C92.4039 13.5773 92.4972 14.058 92.4972 14.562C92.4972 15.178 92.3805 15.7613 92.1472 16.312C91.9139 16.8533 91.5965 17.3387 91.1952 17.768C90.8032 18.1973 90.3599 18.5333 89.8652 18.776C89.3705 19.0187 88.8619 19.14 88.3392 19.14ZM88.3112 18.3C88.7125 18.3 89.1045 18.202 89.4872 18.006C89.8699 17.81 90.2105 17.544 90.5092 17.208C90.8079 16.8627 91.0459 16.48 91.2232 16.06C91.4005 15.6307 91.4892 15.1873 91.4892 14.73C91.4892 14.3287 91.4145 13.9507 91.2652 13.596C91.1159 13.2413 90.9012 12.9567 90.6212 12.742C90.3505 12.5273 90.0052 12.42 89.5852 12.42C89.2399 12.42 88.8992 12.504 88.5632 12.672C88.2365 12.8307 87.9332 13.0453 87.6532 13.316C87.3732 13.5867 87.1119 13.8807 86.8692 14.198L86.3652 16.62C86.3839 16.9373 86.4819 17.2267 86.6592 17.488C86.8459 17.74 87.0792 17.9407 87.3592 18.09C87.6485 18.23 87.9659 18.3 88.3112 18.3ZM96.2744 19.14C95.677 19.14 95.1684 19.0047 94.7484 18.734C94.3284 18.454 94.0064 18.0807 93.7824 17.614C93.5584 17.1473 93.4417 16.6247 93.4324 16.046C93.4324 15.4673 93.535 14.912 93.7404 14.38C93.955 13.848 94.2537 13.372 94.6364 12.952C95.0284 12.532 95.4857 12.2007 96.0084 11.958C96.531 11.706 97.1004 11.58 97.7164 11.58C98.1737 11.58 98.5844 11.6547 98.9484 11.804C99.3124 11.9533 99.597 12.1727 99.8024 12.462C100.017 12.7513 100.124 13.1153 100.124 13.554C100.134 14.2913 99.8164 14.8373 99.1724 15.192C98.5377 15.5373 97.5624 15.71 96.2464 15.71C95.957 15.71 95.635 15.7053 95.2804 15.696C94.935 15.6773 94.5384 15.6493 94.0904 15.612L94.2304 14.94C94.6784 14.968 95.061 14.9913 95.3784 15.01C95.705 15.0193 96.0084 15.024 96.2884 15.024C97.035 15.024 97.623 14.968 98.0524 14.856C98.4817 14.7347 98.7897 14.562 98.9764 14.338C99.1724 14.114 99.2657 13.8527 99.2564 13.554C99.2564 13.2647 99.1817 13.0313 99.0324 12.854C98.883 12.6673 98.687 12.532 98.4444 12.448C98.211 12.364 97.945 12.322 97.6464 12.322C97.161 12.322 96.7177 12.4293 96.3164 12.644C95.9244 12.8493 95.5837 13.1293 95.2944 13.484C95.005 13.8293 94.781 14.2213 94.6224 14.66C94.473 15.0987 94.3984 15.5467 94.3984 16.004C94.4077 16.4427 94.487 16.844 94.6364 17.208C94.7857 17.572 95.0097 17.866 95.3084 18.09C95.6164 18.3047 95.9944 18.412 96.4424 18.412C96.9277 18.412 97.3804 18.2907 97.8004 18.048C98.2297 17.8053 98.5657 17.474 98.8084 17.054L99.5924 17.292C99.3777 17.656 99.0977 17.978 98.7524 18.258C98.407 18.5287 98.0244 18.7433 97.6044 18.902C97.1844 19.0607 96.741 19.14 96.2744 19.14ZM102.227 11.706H103.123L102.745 13.456C103.109 12.9333 103.524 12.5133 103.991 12.196C104.457 11.8787 104.924 11.7107 105.391 11.692C105.465 11.692 105.531 11.6967 105.587 11.706C105.643 11.706 105.689 11.7107 105.727 11.72L105.545 12.546C104.947 12.5647 104.383 12.742 103.851 13.078C103.319 13.414 102.899 13.876 102.591 14.464L101.639 19H100.687L102.227 11.706ZM111.75 19.14C111.115 19.14 110.588 19.0047 110.168 18.734C109.748 18.454 109.435 18.0807 109.23 17.614C109.025 17.1473 108.922 16.634 108.922 16.074C108.922 15.458 109.034 14.8793 109.258 14.338C109.491 13.7967 109.804 13.3207 110.196 12.91C110.588 12.49 111.041 12.1633 111.554 11.93C112.077 11.6967 112.623 11.58 113.192 11.58C113.817 11.58 114.34 11.72 114.76 12C115.189 12.28 115.507 12.6533 115.712 13.12C115.917 13.5773 116.02 14.0907 116.02 14.66C116.02 15.276 115.908 15.8547 115.684 16.396C115.46 16.9373 115.147 17.4133 114.746 17.824C114.354 18.2347 113.901 18.5567 113.388 18.79C112.875 19.0233 112.329 19.14 111.75 19.14ZM111.918 18.3C112.31 18.3 112.693 18.216 113.066 18.048C113.439 17.8707 113.771 17.6233 114.06 17.306C114.359 16.9887 114.597 16.62 114.774 16.2C114.951 15.7707 115.04 15.304 115.04 14.8C115.04 14.352 114.961 13.9507 114.802 13.596C114.653 13.232 114.429 12.9473 114.13 12.742C113.841 12.5273 113.472 12.42 113.024 12.42C112.632 12.42 112.249 12.5087 111.876 12.686C111.503 12.8633 111.167 13.1153 110.868 13.442C110.579 13.7593 110.345 14.1327 110.168 14.562C109.991 14.982 109.902 15.444 109.902 15.948C109.902 16.396 109.977 16.802 110.126 17.166C110.285 17.5207 110.513 17.8007 110.812 18.006C111.111 18.202 111.479 18.3 111.918 18.3ZM118.308 12.462H117.356L117.51 11.706H118.476L118.504 11.51C118.626 10.9127 118.812 10.3993 119.064 9.97C119.326 9.54067 119.638 9.214 120.002 8.99C120.366 8.75667 120.758 8.64 121.178 8.64C121.449 8.64 121.701 8.682 121.934 8.766C122.177 8.85 122.382 8.962 122.55 9.102L122.116 9.788C122.023 9.68533 121.888 9.606 121.71 9.55C121.542 9.494 121.37 9.466 121.192 9.466C120.782 9.466 120.427 9.63867 120.128 9.984C119.83 10.3293 119.61 10.8287 119.47 11.482L119.428 11.706H121.318L121.164 12.462H119.26L117.244 21.968H116.292L118.308 12.462Z" fill="black"/>
</svg>
